<svg width="142" height="123" viewBox="0 0 142 123" fill="none" xmlns="http://www.w3.org/2000/svg">
<path d="M23.6666 102.5C20.4124 102.5 17.602 101.518 15.2353 99.5531C12.9673 97.5031 11.8333 95.0688 11.8333 92.25V30.75C11.8333 27.9313 12.9673 25.5396 15.2353 23.575C17.602 21.525 20.4124 20.5 23.6666 20.5H118.333C121.587 20.5 124.349 21.525 126.617 23.575C128.983 25.5396 130.167 27.9313 130.167 30.75V92.25C130.167 95.0688 128.983 97.5031 126.617 99.5531C124.349 101.518 121.587 102.5 118.333 102.5H23.6666ZM70.9999 66.625L118.333 41V30.75L70.9999 56.375L23.6666 30.75V41L70.9999 66.625Z" fill="#1D1B20"/>
</svg>
